<svg xmlns="http://www.w3.org/2000/svg" viewBox="0 0 511.998 511.998" width="512" height="512"><path d="M471.24 14.054H40.749C18.281 14.054 0 32.332 0 54.803v59.224a8.332 8.332 0 0 0 16.664 0V54.803c0-13.281 10.805-24.085 24.085-24.085h430.49c13.287 0 24.096 10.805 24.096 24.085v284.412h-32.462v-103.01c0-16.17-13.155-29.324-29.324-29.324H312.226c-16.17 0-29.324 13.155-29.324 29.324v159.036H40.749c-13.28 0-24.085-10.805-24.085-24.085v-15.275H263.46a8.332 8.332 0 0 0 0-16.664H16.664V141.801a8.332 8.332 0 0 0-16.664 0v229.354c0 22.47 18.281 40.749 40.749 40.749h142.787l-20.495 47.948h-40.027a8.332 8.332 0 0 0 0 16.664h139.493a8.332 8.332 0 0 0 0-16.664h-81.344l14.241-33.317h87.497v42.086c0 16.17 13.155 29.324 29.324 29.324h121.323c16.17 0 29.324-13.155 29.324-29.324V355.879h32.462v15.275a24.061 24.061 0 0 1-14.72 22.196 8.331 8.331 0 0 0-4.428 10.919 8.332 8.332 0 0 0 10.92 4.429 40.693 40.693 0 0 0 24.892-37.543V54.803c.002-22.471-18.283-40.749-40.758-40.749zM299.564 236.205c.001-6.981 5.68-12.66 12.661-12.66h121.323c6.981 0 12.66 5.679 12.66 12.66V430.18H299.564V236.205zM446.21 468.623c0 6.98-5.679 12.66-12.661 12.66H312.226c-6.981 0-12.66-5.679-12.66-12.66v-21.779H446.21v21.779z" fill="#da7701"/><path d="M262.924 368.955c-3.987-6.049-13.707-4.123-15.098 3-.672 3.44.933 7.043 3.962 8.811 3.025 1.765 6.959 1.424 9.621-.855 3.18-2.722 3.811-7.47 1.515-10.956zm117.66 91.919c-1.324-3.138-4.479-5.226-7.901-5.138-3.412.087-6.483 2.309-7.633 5.519-1.173 3.277-.134 7.034 2.553 9.246 2.799 2.304 6.888 2.494 9.904.494 3.292-2.184 4.536-6.478 3.077-10.121zm15.078-227.331h-45.549a8.332 8.332 0 0 0 0 16.664h45.549a8.332 8.332 0 0 0 0-16.664z" fill="#da7701"/></svg>