<svg xmlns="http://www.w3.org/2000/svg" viewBox="0 0 60 60" width="512" height="512"><path d="M27 3C12.112 3 0 15.112 0 30s12.112 27 27 27h21V41H27c-6.065 0-11-4.935-11-11s4.935-11 11-11h21V3H27zm19 52h-7V43h7v12zM14 30c0 7.168 5.832 13 13 13h10v12H27C13.215 55 2 43.785 2 30S13.215 5 27 5h10v12H27c-7.168 0-13 5.832-13 13zm32-13h-7V5h7v12zm8-9h1a1 1 0 1 0 0-2h-1a1 1 0 1 0 0 2zm-4 0h1a1 1 0 1 0 0-2h-1a1 1 0 1 0 0 2zm8 0h1a1 1 0 1 0 0-2h-1a1 1 0 1 0 0 2zm-3 6h-1a1 1 0 1 0 0 2h1a1 1 0 1 0 0-2zm-5 2h1a1 1 0 1 0 0-2h-1a1 1 0 1 0 0 2zm9-2h-1a1 1 0 1 0 0 2h1a1 1 0 1 0 0-2zm-8-3a1 1 0 0 0 1 1h1a1 1 0 1 0 0-2h-1a1 1 0 0 0-1 1zm4 0a1 1 0 0 0 1 1h1a1 1 0 1 0 0-2h-1a1 1 0 0 0-1 1zm0 34h-1a1 1 0 1 0 0 2h1a1 1 0 1 0 0-2zm-5 2h1a1 1 0 1 0 0-2h-1a1 1 0 1 0 0 2zm9-2h-1a1 1 0 1 0 0 2h1a1 1 0 1 0 0-2zm-4 8h-1a1 1 0 1 0 0 2h1a1 1 0 1 0 0-2zm-4 0h-1a1 1 0 1 0 0 2h1a1 1 0 1 0 0-2zm8 0h-1a1 1 0 1 0 0 2h1a1 1 0 1 0 0-2zm-5-3a1 1 0 0 0-1-1h-1a1 1 0 1 0 0 2h1a1 1 0 0 0 1-1zm4 0a1 1 0 0 0-1-1h-1a1 1 0 1 0 0 2h1a1 1 0 0 0 1-1z" fill="#da7701"/></svg>